<svg version="1.1" id="Layer_1" xmlns="http://www.w3.org/2000/svg" xmlns:xlink="http://www.w3.org/1999/xlink" x="0px" y="0px" width="32" height="32" viewBox="0 0 736 544" enable-background="new 0 0 736 544" xml:space="preserve">
  <path fill="#7C3AED" opacity="1.000000" stroke="none" d="M464.092285,172.896667 C475.426758,183.441360 484.471680,195.304016 491.802765,208.530060 C493.543671,211.670883 493.337524,213.485199 489.884827,215.168167 C478.952911,220.496826 468.093475,225.981445 457.318878,231.621353 C454.127136,233.292084 452.623047,232.910660 450.710266,229.638199 C432.275879,198.100159 404.591949,181.690979 368.137054,181.523010 C323.359833,181.316681 284.129028,215.617294 277.156433,259.829041 C276.215759,265.793549 275.955597,271.743683 275.970276,277.736847 C276.047119,309.068909 276.152161,340.400848 276.214813,371.732880 C276.218018,373.328674 276.701324,375.072266 274.636108,377.268494 C248.190292,352.018097 233.229782,321.391876 230.836456,285.147186 C226.569229,220.524536 263.073761,170.602768 311.285858,148.337814 C361.660706,125.074074 422.014709,133.768356 464.092285,172.896667 z"/>
  <path fill="#7C3AED" opacity="1.000000" stroke="none" d="M433.716064,342.716125 C440.767120,336.193207 446.231537,328.852020 450.655396,320.786499 C452.344360,317.707214 453.771790,316.666687 457.203064,318.481720 C468.089661,324.240417 479.094086,329.781128 490.133972,335.242340 C493.347992,336.832245 493.586975,338.625946 491.917236,341.547058 C468.605560,382.329712 434.130798,406.939148 387.325195,413.332794 C366.094025,416.232971 345.186798,414.273193 324.755432,407.463409 C320.931305,406.188812 319.535858,404.342377 319.599976,400.326996 C319.812561,387.005707 319.664368,373.678864 319.693115,360.354218 C319.696259,358.901031 319.318024,357.348053 320.536774,355.780334 C360.912170,376.338196 398.801849,373.600952 433.716064,342.716125 z"/>
  <path fill="#7C3AED" opacity="1.000000" stroke="none" d="M404.436005,310.430542 C384.043640,330.213409 353.212616,330.039215 333.787048,310.285583 C314.568237,290.742188 314.795044,259.183838 334.294220,239.715759 C353.601349,220.439407 384.482697,220.251907 403.979553,239.292679 C423.862610,258.710632 424.175385,289.986725 404.436005,310.430542 M387.629822,276.227478 C387.592468,275.064117 387.682007,273.880280 387.497925,272.740601 C385.900208,262.849365 378.154846,256.564026 368.175568,257.005676 C359.253754,257.400513 351.885651,264.332947 351.239258,272.940582 C350.434021,283.663361 355.977264,291.117920 366.272186,293.156769 C376.417419,295.165955 384.462250,289.078949 387.629822,276.227478 z"/>
</svg>